<svg width="236" height="318" viewBox="0 0 236 318" fill="none" xmlns="http://www.w3.org/2000/svg">
<path d="M157.954 304.323C162.675 306.184 166.328 308.364 168.793 310.709C171.09 312.895 172.327 315.195 172.483 317.5H122.254H73.5122C73.7478 312.669 77.4339 307.918 86.5541 304.323C95.9973 300.602 108.839 298.5 122.254 298.5C135.669 298.5 148.51 300.602 157.954 304.323Z" fill="#4C4C4C" stroke="#212121"/>
<path d="M127.5 301.661C127.422 301.692 127.33 301.727 127.226 301.766C126.859 301.904 126.345 302.089 125.757 302.273C124.566 302.645 123.127 303 122 303C120.873 303 119.434 302.645 118.244 302.273C117.656 302.089 117.141 301.905 116.774 301.766C116.671 301.727 116.579 301.692 116.5 301.662V51.1738V51.1727L127.5 301.661Z" fill="#4C4C4C" stroke="#212121"/>
<ellipse cx="44.9446" cy="38.7708" rx="44.9446" ry="38.7708" transform="matrix(0.999987 0.00511266 -0.00561618 0.999984 10.348 141.063)" fill="url(#paint0_radial_4090_944)"/>
<ellipse cx="54.9124" cy="184.063" rx="25" ry="24" fill="#3FCC4D" fill-opacity="0.5"/>
<mask id="path-5-inside-1_4090_944" fill="white">
<path d="M7.6552 185.632L51.2821 69.2495C51.2821 69.2495 52.8862 65.0026 55.7728 66.0918C58.6595 67.1811 57.0552 71.4287 57.0552 71.4287L13.7171 187.919C13.7171 187.919 11.9352 191.384 9.17422 190.342C6.41326 189.3 7.6552 185.632 7.6552 185.632Z"/>
</mask>
<path d="M7.6552 185.632L51.2821 69.2495C51.2821 69.2495 52.8862 65.0026 55.7728 66.0918C58.6595 67.1811 57.0552 71.4287 57.0552 71.4287L13.7171 187.919C13.7171 187.919 11.9352 191.384 9.17422 190.342C6.41326 189.3 7.6552 185.632 7.6552 185.632Z" fill="#4C4C4C"/>
<path d="M7.6552 185.632L6.71904 185.28L6.71339 185.295L6.70822 185.31L7.6552 185.632ZM51.2821 69.2495L50.3469 68.8956L50.346 68.898L51.2821 69.2495ZM57.0552 71.4287L56.1199 71.0748L56.1181 71.0795L57.0552 71.4287ZM13.7171 187.919L14.6062 188.377L14.6334 188.324L14.6542 188.268L13.7171 187.919ZM8.59136 185.983L52.2183 69.6011L50.346 68.898L6.71904 185.28L8.59136 185.983ZM56.1181 71.0795L12.7801 187.57L14.6542 188.268L57.9922 71.778L56.1181 71.0795ZM13.7171 187.919C12.8281 187.461 12.8282 187.461 12.8284 187.461C12.8284 187.461 12.8286 187.46 12.8287 187.46C12.8288 187.46 12.829 187.46 12.8291 187.459C12.8293 187.459 12.8295 187.459 12.8295 187.458C12.8296 187.458 12.8292 187.459 12.8285 187.46C12.827 187.463 12.8238 187.469 12.8191 187.478C12.8096 187.495 12.7938 187.524 12.7718 187.561C12.7277 187.637 12.6596 187.748 12.5693 187.881C12.3864 188.149 12.1244 188.487 11.7998 188.789C11.1414 189.402 10.3975 189.735 9.52671 189.406L8.82174 191.278C10.7119 191.991 12.2395 191.113 13.1623 190.254C13.6283 189.82 13.9844 189.356 14.2218 189.008C14.3417 188.832 14.4344 188.681 14.4986 188.571C14.5307 188.516 14.5558 188.471 14.5738 188.438C14.5828 188.421 14.59 188.408 14.5954 188.398C14.5981 188.393 14.6003 188.388 14.6021 188.385C14.603 188.383 14.6038 188.382 14.6045 188.38C14.6048 188.38 14.6052 188.379 14.6054 188.379C14.6056 188.378 14.6058 188.378 14.6058 188.378C14.606 188.377 14.6062 188.377 13.7171 187.919ZM9.52671 189.406C8.68218 189.087 8.40651 188.407 8.37861 187.564C8.36467 187.142 8.42056 186.733 8.484 186.421C8.51523 186.268 8.54708 186.144 8.5702 186.061C8.58173 186.02 8.59097 185.989 8.59674 185.97C8.59961 185.961 8.60161 185.955 8.60257 185.952C8.60305 185.95 8.60327 185.95 8.60321 185.95C8.60319 185.95 8.60309 185.95 8.60292 185.951C8.60283 185.951 8.60273 185.951 8.6026 185.952C8.60254 185.952 8.60244 185.952 8.60241 185.952C8.6023 185.953 8.60218 185.953 7.6552 185.632C6.70822 185.31 6.7081 185.311 6.70797 185.311C6.70792 185.311 6.70779 185.312 6.70769 185.312C6.70749 185.313 6.70728 185.313 6.70704 185.314C6.70657 185.315 6.70603 185.317 6.70541 185.319C6.70418 185.323 6.70266 185.327 6.70088 185.333C6.69731 185.344 6.69267 185.358 6.68712 185.376C6.67604 185.412 6.6613 185.461 6.64426 185.522C6.61025 185.644 6.56664 185.815 6.52458 186.021C6.44144 186.43 6.3594 187.003 6.3801 187.629C6.42146 188.88 6.90531 190.555 8.82174 191.278L9.52671 189.406ZM51.2821 69.2495C52.2174 69.6034 52.2173 69.6037 52.2172 69.604C52.2172 69.6041 52.2171 69.6043 52.217 69.6045C52.2169 69.6048 52.2168 69.605 52.2168 69.6052C52.2167 69.6055 52.2166 69.6056 52.2167 69.6054C52.2168 69.6051 52.2173 69.6038 52.2182 69.6015C52.2199 69.597 52.2232 69.5888 52.2279 69.5771C52.2374 69.5537 52.2527 69.5166 52.2738 69.468C52.316 69.3706 52.3809 69.2287 52.4675 69.0599C52.6429 68.7178 52.8963 68.2877 53.2169 67.8982C53.884 67.0877 54.5875 66.7134 55.4203 67.0277L56.1253 65.156C54.0715 64.381 52.5297 65.5855 51.6731 66.6262C51.2318 67.1623 50.9038 67.7259 50.6883 68.146C50.5794 68.3584 50.4964 68.5397 50.4396 68.6703C50.4112 68.7358 50.3893 68.7888 50.3738 68.8271C50.3661 68.8463 50.36 68.8618 50.3555 68.8733C50.3532 68.879 50.3514 68.8838 50.3499 68.8875C50.3492 68.8894 50.3486 68.891 50.3481 68.8924C50.3478 68.893 50.3476 68.8937 50.3474 68.8942C50.3473 68.8945 50.3472 68.8948 50.3471 68.895C50.347 68.8953 50.3469 68.8956 51.2821 69.2495ZM55.4203 67.0277C56.2522 67.3416 56.5325 68.0859 56.4972 69.1347C56.4803 69.6388 56.3861 70.1289 56.2916 70.5017C56.245 70.6855 56.1998 70.8349 56.1671 70.936C56.1509 70.9863 56.1378 71.0243 56.1294 71.0481C56.1252 71.06 56.1222 71.0684 56.1206 71.0729C56.1198 71.0752 56.1193 71.0765 56.1191 71.0768C56.1191 71.077 56.1191 71.0769 56.1192 71.0766C56.1193 71.0764 56.1194 71.0762 56.1195 71.0759C56.1195 71.0757 56.1196 71.0755 56.1197 71.0754C56.1198 71.0751 56.1199 71.0748 57.0552 71.4287C57.9905 71.7826 57.9906 71.7823 57.9907 71.7819C57.9908 71.7818 57.9909 71.7814 57.991 71.7812C57.9912 71.7806 57.9914 71.78 57.9917 71.7793C57.9922 71.778 57.9928 71.7764 57.9935 71.7745C57.9949 71.7707 57.9967 71.7659 57.9988 71.7601C58.003 71.7485 58.0087 71.7328 58.0155 71.7134C58.0292 71.6744 58.0478 71.6201 58.0698 71.5522C58.1136 71.4167 58.1712 71.2257 58.2298 70.9944C58.3459 70.5366 58.4724 69.8968 58.4957 69.2028C58.541 67.8554 58.1801 65.9314 56.1253 65.156L55.4203 67.0277Z" fill="#212121" mask="url(#path-5-inside-1_4090_944)"/>
<mask id="path-7-inside-2_4090_944" fill="white">
<path d="M96.7786 188.935L52.0304 72.2298C52.0304 72.2298 50.4065 67.9631 53.2897 66.8647C56.1729 65.7663 57.7971 70.0338 57.7971 70.0338L102.833 186.629C102.833 186.629 103.804 190.424 101.046 191.475C98.2887 192.525 96.7786 188.935 96.7786 188.935Z"/>
</mask>
<path d="M96.7786 188.935L52.0304 72.2298C52.0304 72.2298 50.4065 67.9631 53.2897 66.8647C56.1729 65.7663 57.7971 70.0338 57.7971 70.0338L102.833 186.629C102.833 186.629 103.804 190.424 101.046 191.475C98.2887 192.525 96.7786 188.935 96.7786 188.935Z" fill="#4C4C4C"/>
<path d="M96.7786 188.935L95.8447 189.293L95.8504 189.308L95.8566 189.323L96.7786 188.935ZM52.0304 72.2298L51.0956 72.585L51.0965 72.5873L52.0304 72.2298ZM57.7971 70.0338L56.8622 70.3889L56.864 70.3935L57.7971 70.0338ZM102.833 186.629L103.802 186.382L103.788 186.324L103.766 186.269L102.833 186.629ZM97.7125 188.578L52.9644 71.8724L51.0965 72.5873L95.8447 189.293L97.7125 188.578ZM56.864 70.3935L101.9 186.989L103.766 186.269L58.7301 69.674L56.864 70.3935ZM102.833 186.629C101.864 186.876 101.864 186.876 101.864 186.875C101.864 186.875 101.864 186.875 101.864 186.875C101.864 186.874 101.864 186.874 101.864 186.874C101.864 186.873 101.864 186.873 101.864 186.873C101.864 186.873 101.864 186.874 101.864 186.875C101.865 186.878 101.866 186.885 101.869 186.895C101.873 186.914 101.88 186.946 101.889 186.989C101.906 187.076 101.929 187.205 101.95 187.365C101.992 187.69 102.02 188.119 101.978 188.563C101.893 189.466 101.557 190.21 100.69 190.541L101.403 192.409C103.294 191.689 103.851 190.01 103.97 188.752C104.03 188.116 103.988 187.531 103.934 187.111C103.907 186.899 103.875 186.724 103.85 186.598C103.838 186.536 103.827 186.485 103.818 186.449C103.814 186.43 103.811 186.415 103.808 186.404C103.807 186.399 103.805 186.394 103.804 186.39C103.804 186.388 103.804 186.387 103.803 186.385C103.803 186.384 103.803 186.384 103.803 186.383C103.803 186.383 103.803 186.382 103.803 186.382C103.802 186.382 103.802 186.382 102.833 186.629ZM100.69 190.541C99.8493 190.861 99.1905 190.534 98.6062 189.914C98.3149 189.605 98.0842 189.258 97.9241 188.981C97.8453 188.844 97.7865 188.729 97.7486 188.651C97.7297 188.612 97.7162 188.583 97.7082 188.565C97.7041 188.556 97.7015 188.55 97.7002 188.547C97.6996 188.546 97.6993 188.545 97.6994 188.545C97.6994 188.545 97.6995 188.546 97.6997 188.546C97.6998 188.546 97.6999 188.547 97.7001 188.547C97.7002 188.547 97.7003 188.547 97.7003 188.548C97.7005 188.548 97.7006 188.548 96.7786 188.935C95.8566 189.323 95.8568 189.323 95.8569 189.323C95.857 189.323 95.8572 189.324 95.8573 189.324C95.8575 189.325 95.8578 189.325 95.8581 189.326C95.8586 189.327 95.8593 189.329 95.8601 189.331C95.8616 189.334 95.8635 189.339 95.8658 189.344C95.8705 189.355 95.8766 189.369 95.8843 189.386C95.8997 189.42 95.9214 189.467 95.9491 189.524C96.0046 189.638 96.0854 189.795 96.1912 189.979C96.4004 190.342 96.7196 190.827 97.1506 191.285C98.0107 192.197 99.4858 193.139 101.403 192.409L100.69 190.541ZM52.0304 72.2298C52.9652 71.8747 52.9653 71.875 52.9655 71.8752C52.9655 71.8753 52.9656 71.8756 52.9656 71.8757C52.9657 71.876 52.9658 71.8762 52.9659 71.8764C52.966 71.8767 52.966 71.8768 52.966 71.8766C52.9658 71.8762 52.9653 71.8749 52.9645 71.8726C52.9628 71.868 52.9597 71.8596 52.9555 71.8476C52.947 71.8236 52.9337 71.7854 52.9172 71.7347C52.884 71.633 52.838 71.4827 52.7905 71.2977C52.6941 70.9227 52.5976 70.4294 52.5783 69.9218C52.5383 68.8634 52.8175 68.1147 53.6462 67.799L52.9331 65.9304C50.8787 66.7131 50.5283 68.6469 50.5794 69.9965C50.6057 70.6929 50.7349 71.3349 50.853 71.7943C50.9127 72.0265 50.971 72.2181 51.0154 72.354C51.0376 72.4221 51.0565 72.4766 51.0703 72.5157C51.0772 72.5352 51.0829 72.5509 51.0872 72.5625C51.0894 72.5683 51.0912 72.5731 51.0926 72.5769C51.0933 72.5787 51.0939 72.5804 51.0944 72.5817C51.0946 72.5824 51.0949 72.583 51.0951 72.5835C51.0952 72.5838 51.0953 72.5842 51.0954 72.5843C51.0955 72.5847 51.0956 72.585 52.0304 72.2298ZM53.6462 67.799C54.4741 67.4836 55.1793 67.8561 55.8528 68.673C56.1759 69.0649 56.4318 69.4975 56.6091 69.8417C56.6966 70.0115 56.7622 70.1543 56.8051 70.2523C56.8264 70.3012 56.842 70.3386 56.8515 70.3622C56.8563 70.374 56.8596 70.3823 56.8614 70.3869C56.8623 70.3892 56.8628 70.3905 56.863 70.3908C56.863 70.391 56.863 70.3909 56.8629 70.3906C56.8628 70.3905 56.8628 70.3902 56.8626 70.39C56.8626 70.3898 56.8625 70.3896 56.8625 70.3895C56.8624 70.3892 56.8622 70.3889 57.7971 70.0338C58.7319 69.6786 58.7317 69.6783 58.7316 69.678C58.7316 69.6778 58.7314 69.6775 58.7313 69.6772C58.7311 69.6766 58.7309 69.676 58.7306 69.6754C58.7301 69.674 58.7295 69.6724 58.7288 69.6705C58.7273 69.6668 58.7255 69.662 58.7232 69.6562C58.7187 69.6447 58.7125 69.6292 58.7047 69.61C58.6891 69.5716 58.6669 69.5184 58.6382 69.4528C58.581 69.3217 58.4972 69.1397 58.3874 68.9266C58.1701 68.505 57.8397 67.9394 57.3963 67.4017C56.5369 66.3594 54.9885 65.1474 52.9331 65.9304L53.6462 67.799Z" fill="#212121" mask="url(#path-7-inside-2_4090_944)"/>
<path d="M21.6139 210.693C12.6534 204.504 7.60565 196.197 7.4178 187.563H56.1362H103.408C103.272 196.243 99.5771 204.533 90.6586 210.693C81.5239 217.003 69.1068 220.563 56.1362 220.563C43.1657 220.563 30.7486 217.003 21.6139 210.693Z" fill="#4C4C4C" stroke="#212121"/>
<ellipse cx="44.9447" cy="40.1141" rx="44.9447" ry="40.1141" transform="matrix(0.999986 0.00536511 -0.00535193 0.999986 145.638 91.9997)" fill="url(#paint1_radial_4090_944)"/>
<circle cx="190.327" cy="137" r="25" fill="#DC3030" fill-opacity="0.5"/>
<path d="M189.937 25.1908L189.937 25.1911L189.937 25.1913L189.937 25.1913L189.937 25.1932L147.241 139.982L147.239 139.986C147.227 140.007 147.209 140.039 147.185 140.08C147.137 140.163 147.063 140.282 146.967 140.423C146.772 140.706 146.49 141.069 146.133 141.397C145.416 142.057 144.48 142.518 143.35 142.092C142.234 141.671 141.905 140.75 141.869 139.821C141.851 139.356 141.911 138.912 141.978 138.582C142.011 138.418 142.045 138.284 142.07 138.193C142.083 138.148 142.093 138.113 142.1 138.09L142.107 138.067L142.108 138.066L185.1 23.3657L185.1 23.365L185.102 23.3587L185.114 23.3294C185.125 23.3028 185.141 23.2624 185.164 23.2105C185.209 23.1066 185.278 22.9573 185.369 22.7807C185.552 22.425 185.821 21.9696 186.168 21.5514C186.874 20.7017 187.781 20.1288 188.923 20.5597C190.065 20.9905 190.367 22.0196 190.335 23.1235C190.319 23.6668 190.22 24.1863 190.122 24.5742C190.074 24.7669 190.026 24.9242 189.992 25.032C189.974 25.0859 189.96 25.1272 189.951 25.1543L189.94 25.184L189.938 25.1903L189.937 25.1908Z" fill="#4C4C4C" stroke="#212121"/>
<path d="M190.612 24.094L190.612 24.0943L190.612 24.0944L190.612 24.0945L190.613 24.0964L234.413 137.444L234.414 137.447C234.419 137.47 234.427 137.506 234.436 137.552C234.454 137.646 234.477 137.782 234.498 137.95C234.539 138.289 234.567 138.743 234.516 139.222C234.414 140.183 234.018 141.144 232.888 141.575C231.771 142 230.917 141.534 230.278 140.87C229.958 140.537 229.711 140.169 229.542 139.88C229.459 139.736 229.396 139.615 229.355 139.531C229.334 139.489 229.319 139.457 229.31 139.435L229.3 139.414L229.3 139.413L185.78 25.9351L185.78 25.9344L185.778 25.9281L185.767 25.8988C185.757 25.872 185.743 25.8311 185.726 25.7777C185.691 25.6709 185.644 25.5152 185.596 25.3242C185.498 24.9398 185.399 24.425 185.383 23.886C185.351 22.7925 185.652 21.7672 186.795 21.3319C187.937 20.8967 188.843 21.4619 189.546 22.2999C189.893 22.7129 190.161 23.1633 190.344 23.5153C190.434 23.6902 190.503 23.8379 190.548 23.9408C190.57 23.9921 190.587 24.0321 190.598 24.0584L190.609 24.0874L190.612 24.0936L190.612 24.094Z" fill="#4C4C4C" stroke="#212121"/>
<mask id="path-14-inside-3_4090_944" fill="white">
<path d="M141.327 138.5C141.327 147.65 146.279 156.425 155.093 162.895C163.907 169.365 175.862 173 188.327 173C200.792 173 212.747 169.365 221.561 162.895C230.375 156.425 235.327 147.65 235.327 138.5L188.327 138.5H141.327Z"/>
</mask>
<path d="M141.327 138.5C141.327 147.65 146.279 156.425 155.093 162.895C163.907 169.365 175.862 173 188.327 173C200.792 173 212.747 169.365 221.561 162.895C230.375 156.425 235.327 147.65 235.327 138.5L188.327 138.5H141.327Z" fill="#4C4C4C" stroke="#212121" stroke-width="2" mask="url(#path-14-inside-3_4090_944)"/>
<mask id="path-15-inside-4_4090_944" fill="white">
<path d="M56.1872 63.7124L181.771 19.9187C181.771 19.9187 186.364 18.3364 187.993 23.0637C189.622 27.791 185.028 29.3736 185.028 29.3736L59.6072 73.6398C59.6072 73.6398 55.4574 74.3104 53.8997 69.7889C52.342 65.2674 56.1872 63.7124 56.1872 63.7124Z"/>
</mask>
<path d="M56.1872 63.7124L181.771 19.9187C181.771 19.9187 186.364 18.3364 187.993 23.0637C189.622 27.791 185.028 29.3736 185.028 29.3736L59.6072 73.6398C59.6072 73.6398 55.4574 74.3104 53.8997 69.7889C52.342 65.2674 56.1872 63.7124 56.1872 63.7124Z" fill="#4C4C4C"/>
<path d="M56.1872 63.7124L55.8584 62.768L55.8354 62.776L55.8128 62.7852L56.1872 63.7124ZM181.771 19.9187L181.446 18.973L181.443 18.9743L181.771 19.9187ZM185.028 29.3736L184.703 28.4279L184.696 28.4304L185.028 29.3736ZM59.6072 73.6398L59.7661 74.6272L59.8548 74.6129L59.9394 74.583L59.6072 73.6398ZM56.5159 64.6569L182.1 20.8631L181.443 18.9743L55.8584 62.768L56.5159 64.6569ZM184.696 28.4304L59.2749 72.6967L59.9394 74.583L185.36 30.3168L184.696 28.4304ZM59.6072 73.6398C59.4482 72.6525 59.4487 72.6524 59.4492 72.6523C59.4494 72.6523 59.4499 72.6522 59.4502 72.6521C59.4508 72.652 59.4513 72.652 59.4518 72.6519C59.4527 72.6517 59.4535 72.6516 59.454 72.6516C59.4549 72.6514 59.4549 72.6514 59.4541 72.6515C59.4523 72.6518 59.4468 72.6526 59.4379 72.6537C59.4201 72.6559 59.3886 72.6594 59.345 72.663C59.2576 72.6701 59.123 72.6772 58.9537 72.674C58.6125 72.6675 58.1462 72.6198 57.6449 72.458C56.6831 72.1477 55.5119 71.3984 54.845 69.4626L52.9545 70.1152C53.8452 72.7008 55.5278 73.877 57.0303 74.3618C57.7611 74.5976 58.4296 74.6648 58.9151 74.674C59.1592 74.6786 59.361 74.6686 59.5066 74.6567C59.5795 74.6508 59.6387 74.6443 59.6824 74.6389C59.7043 74.6362 59.7224 74.6337 59.7364 74.6317C59.7434 74.6307 59.7494 74.6298 59.7544 74.6291C59.7568 74.6287 59.7591 74.6284 59.761 74.628C59.762 74.6279 59.7629 74.6277 59.7638 74.6276C59.7642 74.6275 59.7648 74.6274 59.765 74.6274C59.7656 74.6273 59.7661 74.6272 59.6072 73.6398ZM54.845 69.4626C54.1812 67.5359 54.6811 66.375 55.2384 65.6815C55.5373 65.3097 55.8797 65.042 56.1515 64.867C56.286 64.7804 56.3989 64.7193 56.4737 64.6816C56.511 64.6629 56.5385 64.6502 56.5539 64.6432C56.5616 64.6398 56.5663 64.6378 56.5676 64.6372C56.5683 64.6369 56.5682 64.637 56.5672 64.6374C56.5667 64.6376 56.5659 64.6379 56.565 64.6383C56.5645 64.6385 56.564 64.6387 56.5634 64.6389C56.5631 64.639 56.5626 64.6392 56.5625 64.6393C56.562 64.6395 56.5615 64.6397 56.1872 63.7124C55.8128 62.7852 55.8123 62.7854 55.8117 62.7856C55.8115 62.7857 55.811 62.7859 55.8105 62.7861C55.8097 62.7864 55.8089 62.7868 55.8079 62.7872C55.806 62.7879 55.8039 62.7888 55.8016 62.7898C55.7969 62.7917 55.7912 62.7941 55.7847 62.7969C55.7716 62.8025 55.7549 62.8097 55.7348 62.8188C55.6947 62.8368 55.641 62.8619 55.5762 62.8945C55.4469 62.9596 55.2715 63.0552 55.0699 63.1851C54.6694 63.4429 54.1479 63.8466 53.6802 64.4287C52.7044 65.643 52.0605 67.5203 52.9545 70.1152L54.845 69.4626ZM181.771 19.9187C182.097 20.8644 182.096 20.8645 182.096 20.8647C182.096 20.8647 182.095 20.8649 182.095 20.8649C182.094 20.8651 182.094 20.8653 182.094 20.8654C182.093 20.8656 182.092 20.8658 182.092 20.8659C182.092 20.866 182.092 20.8658 182.094 20.8652C182.097 20.8642 182.105 20.8618 182.116 20.8584C182.138 20.8515 182.176 20.8404 182.227 20.8269C182.329 20.7999 182.483 20.7638 182.675 20.7324C183.064 20.669 183.582 20.6294 184.128 20.7084C184.67 20.7866 185.223 20.9783 185.717 21.3657C186.208 21.7495 186.696 22.3681 187.048 23.39L188.938 22.7374C188.476 21.3956 187.779 20.4393 186.95 19.7902C186.126 19.1447 185.225 18.8456 184.415 18.7285C183.61 18.6122 182.878 18.6727 182.354 18.7582C182.09 18.8013 181.872 18.8519 181.717 18.8929C181.639 18.9135 181.577 18.9318 181.531 18.9458C181.508 18.9528 181.489 18.9588 181.475 18.9634C181.468 18.9657 181.462 18.9677 181.457 18.9693C181.455 18.9701 181.453 18.9708 181.451 18.9714C181.45 18.9718 181.449 18.972 181.448 18.9723C181.448 18.9724 181.447 18.9726 181.447 18.9727C181.447 18.9729 181.446 18.973 181.771 19.9187ZM187.048 23.39C187.4 24.4118 187.396 25.1997 187.246 25.8036C187.095 26.4131 186.778 26.9046 186.399 27.2996C186.018 27.6984 185.585 27.9862 185.24 28.1755C185.069 28.269 184.926 28.3354 184.829 28.3771C184.78 28.3979 184.744 28.4123 184.722 28.4207C184.711 28.4249 184.704 28.4276 184.7 28.4288C184.699 28.4294 184.698 28.4296 184.698 28.4295C184.699 28.4294 184.699 28.4292 184.7 28.429C184.7 28.4289 184.701 28.4287 184.701 28.4285C184.701 28.4285 184.702 28.4283 184.702 28.4283C184.702 28.4281 184.703 28.428 185.028 29.3736C185.353 30.3193 185.354 30.3191 185.354 30.3189C185.354 30.3189 185.355 30.3187 185.355 30.3185C185.356 30.3183 185.357 30.318 185.358 30.3177C185.36 30.317 185.362 30.3163 185.364 30.3154C185.369 30.3137 185.375 30.3116 185.382 30.3091C185.396 30.304 185.414 30.2972 185.436 30.2886C185.481 30.2715 185.542 30.2473 185.616 30.2156C185.763 30.1523 185.966 30.0582 186.201 29.9294C186.666 29.6743 187.28 29.271 187.843 28.6832C188.409 28.0917 188.935 27.3011 189.187 26.2844C189.441 25.262 189.401 24.0792 188.938 22.7374L187.048 23.39Z" fill="#212121" mask="url(#path-15-inside-4_4090_944)"/>
<circle cx="55.3174" cy="69.3005" r="7" transform="rotate(-19.0093 55.3174 69.3005)" fill="#212121" stroke="#4C4C4C"/>
<circle cx="187.683" cy="23.6995" r="7" transform="rotate(-19.0093 187.683 23.6995)" fill="#212121" stroke="#4C4C4C"/>
<defs>
<radialGradient id="paint0_radial_4090_944" cx="0" cy="0" r="1" gradientUnits="userSpaceOnUse" gradientTransform="translate(44.9446 38.7708) rotate(90) scale(38.7708 44.9446)">
<stop stop-color="#7ADA6A"/>
<stop offset="1" stop-color="#7ED376" stop-opacity="0"/>
</radialGradient>
<radialGradient id="paint1_radial_4090_944" cx="0" cy="0" r="1" gradientUnits="userSpaceOnUse" gradientTransform="translate(44.9447 40.1141) rotate(90) scale(40.1141 44.9447)">
<stop stop-color="#DA6A6A"/>
<stop offset="1" stop-color="#D37676" stop-opacity="0"/>
</radialGradient>
</defs>
</svg>
