<svg width="240" height="332" viewBox="0 0 240 332" fill="none" xmlns="http://www.w3.org/2000/svg">
<ellipse cx="105" cy="308" rx="95" ry="24" fill="url(#paint0_radial_4116_478)" fill-opacity="0.37"/>
<path d="M157.954 304.323C162.675 306.184 166.328 308.364 168.793 310.709C171.09 312.895 172.327 315.195 172.483 317.5H122.254H73.5122C73.7478 312.669 77.4339 307.918 86.5541 304.323C95.9973 300.602 108.839 298.5 122.254 298.5C135.669 298.5 148.51 300.602 157.954 304.323Z" fill="#4C4C4C" stroke="#212121"/>
<path d="M127.5 301.662C127.422 301.692 127.33 301.727 127.226 301.766C126.859 301.905 126.345 302.089 125.757 302.273C124.566 302.645 123.127 303 122 303C120.873 303 119.434 302.645 118.244 302.273C117.656 302.089 117.141 301.905 116.774 301.767C116.671 301.728 116.579 301.692 116.5 301.662V51.1739V51.1728L127.5 301.662Z" fill="#4C4C4C" stroke="#212121"/>
<ellipse cx="45" cy="38.8186" rx="45" ry="38.8186" transform="matrix(0.999987 0.00511266 -0.00561618 0.999984 5.43739 121)" fill="url(#paint1_radial_4116_478)"/>
<ellipse cx="51.5" cy="164" rx="27.5" ry="24" fill="#3FCC4D" fill-opacity="0.5"/>
<mask id="path-6-inside-1_4116_478" fill="white">
<path d="M4.6552 162.632L48.2821 46.2497C48.2821 46.2497 49.8862 42.0028 52.7728 43.092C55.6595 44.1813 54.0552 48.4289 54.0552 48.4289L10.7171 164.919C10.7171 164.919 8.93518 168.384 6.17422 167.342C3.41326 166.3 4.6552 162.632 4.6552 162.632Z"/>
</mask>
<path d="M4.6552 162.632L48.2821 46.2497C48.2821 46.2497 49.8862 42.0028 52.7728 43.092C55.6595 44.1813 54.0552 48.4289 54.0552 48.4289L10.7171 164.919C10.7171 164.919 8.93518 168.384 6.17422 167.342C3.41326 166.3 4.6552 162.632 4.6552 162.632Z" fill="#4C4C4C"/>
<path d="M4.6552 162.632L3.71904 162.28L3.71339 162.295L3.70822 162.311L4.6552 162.632ZM48.2821 46.2497L47.3469 45.8958L47.346 45.8982L48.2821 46.2497ZM54.0552 48.4289L53.1199 48.075L53.1181 48.0797L54.0552 48.4289ZM10.7171 164.919L11.6062 165.377L11.6334 165.324L11.6542 165.269L10.7171 164.919ZM5.59136 162.983L49.2183 46.6013L47.346 45.8982L3.71904 162.28L5.59136 162.983ZM53.1181 48.0797L9.7801 164.57L11.6542 165.269L54.9922 48.7782L53.1181 48.0797ZM10.7171 164.919C9.82807 164.461 9.82823 164.461 9.82838 164.461C9.82842 164.461 9.82857 164.46 9.82866 164.46C9.82883 164.46 9.82898 164.46 9.8291 164.459C9.82934 164.459 9.82947 164.459 9.82951 164.459C9.82958 164.459 9.82923 164.459 9.82848 164.461C9.82697 164.463 9.82383 164.469 9.81909 164.478C9.8096 164.495 9.79375 164.524 9.77176 164.562C9.72766 164.637 9.65959 164.748 9.56932 164.881C9.38636 165.149 9.12441 165.487 8.7998 165.789C8.14139 166.402 7.39754 166.735 6.52671 166.406L5.82174 168.278C7.71186 168.991 9.23947 168.113 10.1623 167.254C10.6283 166.82 10.9844 166.357 11.2218 166.008C11.3417 165.832 11.4344 165.681 11.4986 165.571C11.5307 165.516 11.5558 165.471 11.5738 165.438C11.5828 165.422 11.59 165.408 11.5954 165.398C11.5981 165.393 11.6003 165.389 11.6021 165.385C11.603 165.383 11.6038 165.382 11.6045 165.381C11.6048 165.38 11.6052 165.379 11.6054 165.379C11.6056 165.379 11.6058 165.378 11.6058 165.378C11.606 165.378 11.6062 165.377 10.7171 164.919ZM6.52671 166.406C5.68218 166.088 5.40651 165.407 5.37861 164.564C5.36467 164.142 5.42056 163.733 5.484 163.421C5.51523 163.268 5.54708 163.144 5.5702 163.061C5.58173 163.02 5.59097 162.989 5.59674 162.97C5.59961 162.961 5.60161 162.955 5.60257 162.952C5.60305 162.951 5.60327 162.95 5.60321 162.95C5.60319 162.95 5.60309 162.95 5.60292 162.951C5.60283 162.951 5.60273 162.952 5.6026 162.952C5.60254 162.952 5.60244 162.952 5.60241 162.952C5.6023 162.953 5.60218 162.953 4.6552 162.632C3.70822 162.311 3.7081 162.311 3.70797 162.311C3.70792 162.312 3.70779 162.312 3.70769 162.312C3.70749 162.313 3.70728 162.313 3.70704 162.314C3.70657 162.316 3.70603 162.317 3.70541 162.319C3.70418 162.323 3.70266 162.327 3.70088 162.333C3.69731 162.344 3.69267 162.358 3.68712 162.376C3.67604 162.412 3.6613 162.461 3.64426 162.522C3.61025 162.644 3.56664 162.815 3.52458 163.021C3.44144 163.43 3.3594 164.003 3.3801 164.629C3.42146 165.88 3.90531 167.555 5.82174 168.278L6.52671 166.406ZM48.2821 46.2497C49.2174 46.6036 49.2173 46.6039 49.2172 46.6042C49.2172 46.6043 49.2171 46.6045 49.217 46.6047C49.2169 46.605 49.2168 46.6052 49.2168 46.6053C49.2167 46.6057 49.2166 46.6057 49.2167 46.6056C49.2168 46.6052 49.2173 46.6039 49.2182 46.6017C49.2199 46.5972 49.2232 46.589 49.2279 46.5773C49.2374 46.5539 49.2527 46.5168 49.2738 46.4682C49.316 46.3708 49.3809 46.2289 49.4675 46.0601C49.6429 45.718 49.8963 45.2879 50.2169 44.8984C50.884 44.0879 51.5875 43.7136 52.4203 44.0278L53.1253 42.1562C51.0715 41.3812 49.5297 42.5857 48.6731 43.6264C48.2318 44.1625 47.9038 44.7261 47.6883 45.1462C47.5794 45.3586 47.4964 45.5399 47.4396 45.6705C47.4112 45.736 47.3893 45.789 47.3738 45.8273C47.3661 45.8465 47.36 45.8619 47.3555 45.8735C47.3532 45.8792 47.3514 45.884 47.3499 45.8877C47.3492 45.8896 47.3486 45.8912 47.3481 45.8926C47.3478 45.8932 47.3476 45.8939 47.3474 45.8944C47.3473 45.8947 47.3472 45.895 47.3471 45.8952C47.347 45.8955 47.3469 45.8958 48.2821 46.2497ZM52.4203 44.0278C53.2522 44.3418 53.5325 45.0861 53.4972 46.1349C53.4803 46.639 53.3861 47.1291 53.2916 47.5018C53.245 47.6857 53.1998 47.8351 53.1671 47.9362C53.1509 47.9865 53.1378 48.0245 53.1294 48.0483C53.1252 48.0602 53.1222 48.0685 53.1206 48.0731C53.1198 48.0753 53.1193 48.0767 53.1191 48.077C53.1191 48.0772 53.1191 48.0771 53.1192 48.0768C53.1193 48.0766 53.1194 48.0764 53.1195 48.0761C53.1195 48.0759 53.1196 48.0757 53.1197 48.0756C53.1198 48.0753 53.1199 48.075 54.0552 48.4289C54.9905 48.7828 54.9906 48.7825 54.9907 48.7821C54.9908 48.782 54.9909 48.7816 54.991 48.7814C54.9912 48.7808 54.9914 48.7802 54.9917 48.7795C54.9922 48.7782 54.9928 48.7765 54.9935 48.7747C54.9949 48.7709 54.9967 48.7661 54.9988 48.7603C55.003 48.7487 55.0087 48.733 55.0155 48.7136C55.0292 48.6746 55.0478 48.6203 55.0698 48.5524C55.1136 48.4169 55.1712 48.2259 55.2298 47.9946C55.3459 47.5368 55.4724 46.897 55.4957 46.203C55.541 44.8556 55.1801 42.9316 53.1253 42.1562L52.4203 44.0278Z" fill="#212121" mask="url(#path-6-inside-1_4116_478)"/>
<mask id="path-8-inside-2_4116_478" fill="white">
<path d="M93.7786 165.936L49.0304 49.2301C49.0304 49.2301 47.4065 44.9633 50.2897 43.865C53.1729 42.7666 54.7971 47.034 54.7971 47.034L99.8333 163.629C99.8333 163.629 100.804 167.425 98.0464 168.475C95.2887 169.526 93.7786 165.936 93.7786 165.936Z"/>
</mask>
<path d="M93.7786 165.936L49.0304 49.2301C49.0304 49.2301 47.4065 44.9633 50.2897 43.865C53.1729 42.7666 54.7971 47.034 54.7971 47.034L99.8333 163.629C99.8333 163.629 100.804 167.425 98.0464 168.475C95.2887 169.526 93.7786 165.936 93.7786 165.936Z" fill="#4C4C4C"/>
<path d="M93.7786 165.936L92.8447 166.293L92.8504 166.308L92.8566 166.323L93.7786 165.936ZM49.0304 49.2301L48.0956 49.5852L48.0965 49.5875L49.0304 49.2301ZM54.7971 47.034L53.8622 47.3892L53.864 47.3938L54.7971 47.034ZM99.8333 163.629L100.802 163.382L100.788 163.325L100.766 163.269L99.8333 163.629ZM94.7126 165.578L49.9644 48.8726L48.0965 49.5875L92.8447 166.293L94.7126 165.578ZM53.864 47.3938L98.9003 163.989L100.766 163.269L55.7301 46.6743L53.864 47.3938ZM99.8333 163.629C98.8643 163.876 98.8642 163.876 98.8641 163.876C98.8641 163.876 98.864 163.875 98.864 163.875C98.8639 163.875 98.8638 163.874 98.8638 163.874C98.8636 163.874 98.8636 163.873 98.8635 163.873C98.8635 163.873 98.8637 163.874 98.8641 163.876C98.8649 163.879 98.8664 163.885 98.8687 163.895C98.8731 163.915 98.8802 163.947 98.8889 163.99C98.9061 164.076 98.9293 164.206 98.9499 164.366C98.9917 164.69 99.0202 165.119 98.9782 165.564C98.8929 166.466 98.5568 167.211 97.6898 167.541L98.4029 169.409C100.294 168.689 100.851 167.01 100.97 165.753C101.03 165.117 100.988 164.531 100.934 164.111C100.907 163.899 100.875 163.724 100.85 163.599C100.838 163.536 100.827 163.486 100.818 163.449C100.814 163.431 100.811 163.416 100.808 163.404C100.807 163.399 100.805 163.394 100.805 163.39C100.804 163.388 100.804 163.387 100.803 163.385C100.803 163.385 100.803 163.384 100.803 163.383C100.803 163.383 100.803 163.383 100.803 163.383C100.802 163.382 100.802 163.382 99.8333 163.629ZM97.6898 167.541C96.8493 167.861 96.1906 167.534 95.6062 166.914C95.3149 166.605 95.0842 166.259 94.9241 165.981C94.8453 165.844 94.7865 165.729 94.7486 165.651C94.7298 165.613 94.7162 165.583 94.7082 165.565C94.7041 165.556 94.7015 165.55 94.7002 165.547C94.6996 165.546 94.6993 165.545 94.6994 165.545C94.6994 165.546 94.6995 165.546 94.6997 165.546C94.6998 165.547 94.7 165.547 94.7001 165.547C94.7002 165.547 94.7003 165.548 94.7003 165.548C94.7005 165.548 94.7006 165.548 93.7786 165.936C92.8566 166.323 92.8568 166.323 92.8569 166.323C92.857 166.324 92.8572 166.324 92.8573 166.324C92.8575 166.325 92.8578 166.325 92.8581 166.326C92.8586 166.328 92.8593 166.329 92.8601 166.331C92.8616 166.334 92.8635 166.339 92.8659 166.344C92.8705 166.355 92.8766 166.369 92.8843 166.386C92.8997 166.42 92.9214 166.467 92.9492 166.524C93.0046 166.638 93.0854 166.796 93.1912 166.979C93.4004 167.342 93.7196 167.828 94.1506 168.285C95.0107 169.197 96.4858 170.14 98.4029 169.409L97.6898 167.541ZM49.0304 49.2301C49.9652 48.8749 49.9654 48.8752 49.9655 48.8755C49.9655 48.8756 49.9656 48.8758 49.9656 48.876C49.9657 48.8763 49.9658 48.8765 49.9659 48.8766C49.966 48.877 49.966 48.877 49.966 48.8769C49.9658 48.8765 49.9653 48.8752 49.9645 48.8729C49.9628 48.8683 49.9597 48.8599 49.9555 48.8479C49.947 48.8239 49.9337 48.7856 49.9172 48.7349C49.884 48.6332 49.838 48.4829 49.7905 48.2979C49.6941 47.923 49.5976 47.4297 49.5784 46.922C49.5383 45.8637 49.8175 45.1149 50.6462 44.7992L49.9331 42.9307C47.8787 43.7133 47.5283 45.6471 47.5794 46.9968C47.6058 47.6931 47.735 48.3352 47.853 48.7946C47.9127 49.0267 47.9711 49.2183 48.0154 49.3543C48.0376 49.4224 48.0565 49.4769 48.0703 49.5159C48.0773 49.5354 48.083 49.5511 48.0872 49.5627C48.0894 49.5686 48.0912 49.5734 48.0926 49.5771C48.0933 49.579 48.0939 49.5806 48.0944 49.582C48.0946 49.5826 48.0949 49.5833 48.0951 49.5838C48.0952 49.5841 48.0953 49.5844 48.0954 49.5846C48.0955 49.5849 48.0956 49.5852 49.0304 49.2301ZM50.6462 44.7992C51.4741 44.4839 52.1793 44.8564 52.8529 45.6733C53.1759 46.0651 53.4318 46.4978 53.6091 46.8419C53.6966 47.0117 53.7622 47.1546 53.8051 47.2526C53.8264 47.3015 53.842 47.3389 53.8516 47.3625C53.8563 47.3743 53.8596 47.3826 53.8614 47.3871C53.8623 47.3894 53.8628 47.3907 53.863 47.3911C53.8631 47.3913 53.863 47.3912 53.8629 47.3909C53.8628 47.3907 53.8628 47.3905 53.8627 47.3902C53.8626 47.3901 53.8625 47.3898 53.8625 47.3897C53.8624 47.3895 53.8623 47.3892 54.7971 47.034C55.7319 46.6789 55.7317 46.6785 55.7316 46.6782C55.7316 46.6781 55.7314 46.6777 55.7313 46.6774C55.7311 46.6769 55.7309 46.6763 55.7306 46.6756C55.7301 46.6743 55.7295 46.6726 55.7288 46.6708C55.7273 46.667 55.7255 46.6623 55.7232 46.6565C55.7187 46.645 55.7125 46.6295 55.7047 46.6103C55.6891 46.5719 55.6669 46.5187 55.6382 46.453C55.581 46.322 55.4972 46.14 55.3874 45.9269C55.1701 45.5052 54.8397 44.9397 54.3963 44.4019C53.5369 43.3597 51.9885 42.1477 49.9331 42.9307L50.6462 44.7992Z" fill="#212121" mask="url(#path-8-inside-2_4116_478)"/>
<path d="M18.6139 187.693C9.65337 181.504 4.60564 173.197 4.41779 164.563H53.1362H100.408C100.272 173.243 96.5771 181.533 87.6586 187.693C78.5239 194.003 66.1068 197.563 53.1362 197.563C40.1657 197.563 27.7486 194.003 18.6139 187.693Z" fill="#4C4C4C" stroke="#212121"/>
<ellipse cx="45" cy="40.1635" rx="45" ry="40.1635" transform="matrix(0.999986 0.00536511 -0.00535193 0.999986 147.43 120)" fill="url(#paint2_radial_4116_478)"/>
<ellipse cx="192.93" cy="163" rx="27.5" ry="24" fill="#DC3030" fill-opacity="0.5"/>
<path d="M193.937 51.191L193.937 51.1912L193.937 51.1914L193.937 51.1915L193.937 51.1933L151.241 165.983L151.239 165.986C151.227 166.007 151.209 166.039 151.185 166.08C151.137 166.163 151.063 166.282 150.967 166.423C150.772 166.706 150.49 167.069 150.133 167.397C149.416 168.057 148.48 168.518 147.35 168.092C146.234 167.671 145.905 166.75 145.869 165.821C145.851 165.356 145.911 164.913 145.978 164.582C146.011 164.418 146.045 164.284 146.07 164.193C146.083 164.148 146.093 164.113 146.1 164.091L146.107 164.068L146.108 164.067L189.1 49.3659L189.1 49.3651L189.102 49.3588L189.114 49.3296C189.125 49.303 189.141 49.2626 189.164 49.2107C189.209 49.1068 189.278 48.9575 189.369 48.7808C189.552 48.4252 189.821 47.9698 190.168 47.5515C190.874 46.7018 191.781 46.1289 192.923 46.5599C194.065 46.9907 194.367 48.0197 194.335 49.1236C194.319 49.667 194.22 50.1864 194.122 50.5744C194.074 50.7671 194.026 50.9243 193.992 51.0322C193.974 51.086 193.96 51.1274 193.951 51.1545L193.94 51.1842L193.938 51.1905L193.937 51.191Z" fill="#4C4C4C" stroke="#212121"/>
<path d="M194.612 50.0941L194.612 50.0944L194.612 50.0945L194.612 50.0946L194.613 50.0965L238.413 163.444L238.414 163.448C238.419 163.471 238.427 163.506 238.436 163.552C238.454 163.646 238.477 163.782 238.498 163.95C238.539 164.289 238.567 164.744 238.516 165.222C238.414 166.183 238.018 167.144 236.888 167.575C235.771 168 234.917 167.534 234.278 166.87C233.958 166.537 233.711 166.169 233.542 165.88C233.459 165.737 233.396 165.615 233.355 165.531C233.334 165.489 233.319 165.457 233.31 165.436L233.3 165.414L233.3 165.413L189.78 51.9351L189.78 51.9344L189.778 51.9282L189.767 51.8989C189.757 51.8721 189.743 51.8312 189.726 51.7778C189.691 51.671 189.644 51.5153 189.596 51.3243C189.498 50.9399 189.399 50.4251 189.383 49.8861C189.351 48.7925 189.652 47.7673 190.795 47.332C191.937 46.8968 192.843 47.462 193.546 48.2999C193.893 48.713 194.161 49.1634 194.344 49.5154C194.434 49.6902 194.503 49.838 194.548 49.9409C194.57 49.9922 194.587 50.0322 194.598 50.0585L194.609 50.0875L194.612 50.0937L194.612 50.0941Z" fill="#4C4C4C" stroke="#212121"/>
<mask id="path-15-inside-3_4116_478" fill="white">
<path d="M145.327 164.5C145.327 173.65 150.279 182.425 159.093 188.895C167.907 195.365 179.862 199 192.327 199C204.792 199 216.747 195.365 225.561 188.895C234.375 182.425 239.327 173.65 239.327 164.5L192.327 164.5H145.327Z"/>
</mask>
<path d="M145.327 164.5C145.327 173.65 150.279 182.425 159.093 188.895C167.907 195.365 179.862 199 192.327 199C204.792 199 216.747 195.365 225.561 188.895C234.375 182.425 239.327 173.65 239.327 164.5L192.327 164.5H145.327Z" fill="#4C4C4C" stroke="#212121" stroke-width="2" mask="url(#path-15-inside-3_4116_478)"/>
<mask id="path-16-inside-4_4116_478" fill="white">
<path d="M54.1425 41.5001L187.143 41.0001C187.143 41.0001 192.001 41.0001 192.001 46.0001C192.001 51.0001 187.142 51.0001 187.142 51.0001L54.1424 52.0001C54.1424 52.0001 50.0006 51.2824 50.0006 46.5001C50.0006 41.7178 54.1425 41.5001 54.1425 41.5001Z"/>
</mask>
<path d="M54.1425 41.5001L187.143 41.0001C187.143 41.0001 192.001 41.0001 192.001 46.0001C192.001 51.0001 187.142 51.0001 187.142 51.0001L54.1424 52.0001C54.1424 52.0001 50.0006 51.2824 50.0006 46.5001C50.0006 41.7178 54.1425 41.5001 54.1425 41.5001Z" fill="#4C4C4C"/>
<path d="M54.1425 41.5001L54.1393 40.5001L54.1149 40.5002L54.0906 40.5015L54.1425 41.5001ZM187.143 41.0001L187.143 40.0001L187.14 40.0001L187.143 41.0001ZM187.142 51.0001L187.142 50.0001L187.135 50.0002L187.142 51.0001ZM54.1424 52.0001L53.9711 52.9854L54.0596 53.0008L54.1493 53.0001L54.1424 52.0001ZM54.1456 42.5001L187.146 42.0001L187.14 40.0001L54.1393 40.5001L54.1456 42.5001ZM187.135 50.0002L54.1355 51.0002L54.1493 53.0001L187.149 52.0001L187.135 50.0002ZM54.1424 52.0001C54.3137 51.0148 54.3142 51.0149 54.3147 51.015C54.3149 51.015 54.3154 51.0151 54.3157 51.0151C54.3163 51.0153 54.3168 51.0153 54.3173 51.0154C54.3183 51.0156 54.319 51.0157 54.3195 51.0158C54.3204 51.016 54.3204 51.016 54.3196 51.0158C54.3178 51.0155 54.3124 51.0144 54.3036 51.0126C54.2861 51.0089 54.2551 51.002 54.2128 50.9911C54.1278 50.9694 53.9982 50.9322 53.8392 50.8741C53.5187 50.7569 53.0934 50.5598 52.6721 50.2436C51.8638 49.6369 51.0006 48.5471 51.0006 46.4995L49.0006 46.5007C49.0006 49.2355 50.2082 50.8956 51.4709 51.8434C52.0851 52.3044 52.6952 52.5856 53.1513 52.7524C53.3805 52.8363 53.5746 52.8926 53.7161 52.9288C53.787 52.9469 53.845 52.9601 53.8882 52.9692C53.9097 52.9738 53.9276 52.9773 53.9415 52.98C53.9484 52.9813 53.9544 52.9824 53.9594 52.9833C53.9618 52.9838 53.964 52.9842 53.966 52.9845C53.967 52.9847 53.9679 52.9849 53.9687 52.985C53.9692 52.9851 53.9698 52.9852 53.97 52.9852C53.9705 52.9853 53.9711 52.9854 54.1424 52.0001ZM51.0006 46.4995C51.0006 44.4617 51.8513 43.527 52.6041 43.0528C53.0078 42.7986 53.4187 42.6571 53.7327 42.5801C53.888 42.5421 54.0147 42.521 54.0977 42.5098C54.1391 42.5042 54.1692 42.5011 54.186 42.4996C54.1944 42.4988 54.1995 42.4985 54.201 42.4984C54.2017 42.4983 54.2016 42.4983 54.2005 42.4984C54.1999 42.4984 54.1991 42.4985 54.1981 42.4985C54.1976 42.4986 54.1971 42.4986 54.1964 42.4986C54.1961 42.4986 54.1956 42.4987 54.1954 42.4987C54.1949 42.4987 54.1944 42.4987 54.1425 41.5001C54.0906 40.5015 54.09 40.5015 54.0894 40.5016C54.0892 40.5016 54.0886 40.5016 54.0881 40.5016C54.0872 40.5017 54.0863 40.5017 54.0853 40.5018C54.0833 40.5019 54.081 40.502 54.0785 40.5022C54.0734 40.5025 54.0673 40.5029 54.0602 40.5034C54.046 40.5044 54.0278 40.5059 54.0059 40.5079C53.9621 40.5118 53.9031 40.5181 53.8313 40.5278C53.6878 40.5472 53.4908 40.5805 53.2579 40.6376C52.7953 40.7509 52.1707 40.9627 51.5389 41.3607C50.2208 42.191 49.0006 43.7562 49.0006 46.5007L51.0006 46.4995ZM187.143 41.0001C187.142 42.0001 187.142 42.0001 187.141 42.0001C187.141 42.0001 187.141 42.0001 187.14 42.0001C187.14 42.0001 187.139 42.0001 187.139 42.0001C187.138 42.0001 187.138 42.0001 187.137 42.0001C187.137 42.0001 187.138 42.0001 187.139 42.0001C187.143 42.0002 187.151 42.0004 187.162 42.0008C187.186 42.0016 187.225 42.0033 187.278 42.0072C187.383 42.015 187.54 42.031 187.732 42.0639C188.12 42.1304 188.623 42.2617 189.114 42.5143C189.6 42.7647 190.061 43.1261 190.402 43.6535C190.741 44.176 191.001 44.9199 191.001 46.0007L193.001 45.9995C193.001 44.5803 192.653 43.4492 192.081 42.5655C191.512 41.6866 190.758 41.1105 190.03 40.7359C189.306 40.3636 188.594 40.1823 188.071 40.0926C187.808 40.0474 187.586 40.0244 187.425 40.0126C187.345 40.0067 187.28 40.0036 187.232 40.0019C187.208 40.0011 187.189 40.0007 187.174 40.0004C187.166 40.0003 187.16 40.0002 187.155 40.0002C187.152 40.0002 187.15 40.0001 187.148 40.0001C187.147 40.0001 187.146 40.0001 187.146 40.0001C187.145 40.0001 187.145 40.0001 187.144 40.0001C187.144 40.0001 187.143 40.0001 187.143 41.0001ZM191.001 46.0007C191.001 47.0815 190.741 47.8252 190.402 48.3474C190.061 48.8745 189.601 49.2357 189.114 49.486C188.623 49.7386 188.121 49.8698 187.733 49.9364C187.541 49.9693 187.383 49.9853 187.278 49.993C187.225 49.9969 187.186 49.9987 187.163 49.9995C187.151 49.9999 187.143 50.0001 187.14 50.0001C187.138 50.0001 187.137 50.0001 187.138 50.0001C187.138 50.0001 187.139 50.0001 187.139 50.0001C187.14 50.0001 187.14 50.0001 187.141 50.0001C187.141 50.0001 187.141 50.0001 187.142 50.0001C187.142 50.0001 187.142 50.0001 187.142 51.0001C187.141 52.0001 187.142 52.0001 187.142 52.0001C187.143 52.0001 187.143 52.0001 187.144 52.0001C187.144 52.0001 187.145 52.0001 187.146 52.0001C187.148 52.0001 187.15 52.0001 187.153 52.0001C187.158 52 187.164 52 187.172 51.9998C187.187 51.9996 187.206 51.9991 187.23 51.9983C187.278 51.9967 187.343 51.9936 187.423 51.9877C187.584 51.9759 187.806 51.9529 188.07 51.9076C188.593 51.8179 189.305 51.6366 190.028 51.2643C190.757 50.8895 191.511 50.3133 192.081 49.4341C192.653 48.5501 193.001 47.4187 193.001 45.9995L191.001 46.0007Z" fill="#212121" mask="url(#path-16-inside-4_4116_478)"/>
<circle cx="51.5" cy="46.5001" r="7" fill="#212121" stroke="#4C4C4C"/>
<circle cx="191.5" cy="46.5001" r="7" fill="#212121" stroke="#4C4C4C"/>
<defs>
<radialGradient id="paint0_radial_4116_478" cx="0" cy="0" r="1" gradientUnits="userSpaceOnUse" gradientTransform="translate(105 308) scale(95 24)">
<stop offset="0.595"/>
<stop offset="1" stop-opacity="0"/>
</radialGradient>
<radialGradient id="paint1_radial_4116_478" cx="0" cy="0" r="1" gradientUnits="userSpaceOnUse" gradientTransform="translate(45 38.8186) rotate(90) scale(38.8186 45)">
<stop stop-color="#7ADA6A"/>
<stop offset="1" stop-color="#7ED376" stop-opacity="0"/>
</radialGradient>
<radialGradient id="paint2_radial_4116_478" cx="0" cy="0" r="1" gradientUnits="userSpaceOnUse" gradientTransform="translate(45 40.1635) rotate(90) scale(40.1635 45)">
<stop stop-color="#DA6A6A"/>
<stop offset="1" stop-color="#D37676" stop-opacity="0"/>
</radialGradient>
</defs>
</svg>
