<svg width="13" height="21" viewBox="0 0 13 21" fill="none" xmlns="http://www.w3.org/2000/svg">
<path d="M5.2 18.375C5.2 19.8188 4.03 21 2.6 21C1.17 21 0 19.8188 0 18.375C0 16.9312 1.17 15.75 2.6 15.75C4.03 15.75 5.2 16.9312 5.2 18.375ZM2.6 7.875C1.17 7.875 0 9.05625 0 10.5C0 11.9438 1.17 13.125 2.6 13.125C4.03 13.125 5.2 11.9438 5.2 10.5C5.2 9.05625 4.03 7.875 2.6 7.875ZM2.6 0C1.17 0 0 1.18125 0 2.625C0 4.06875 1.17 5.25 2.6 5.25C4.03 5.25 5.2 4.06875 5.2 2.625C5.2 1.18125 4.03 0 2.6 0ZM10.4 5.25C11.83 5.25 13 4.06875 13 2.625C13 1.18125 11.83 0 10.4 0C8.97 0 7.8 1.18125 7.8 2.625C7.8 4.06875 8.97 5.25 10.4 5.25ZM10.4 7.875C8.97 7.875 7.8 9.05625 7.8 10.5C7.8 11.9438 8.97 13.125 10.4 13.125C11.83 13.125 13 11.9438 13 10.5C13 9.05625 11.83 7.875 10.4 7.875ZM10.4 15.75C8.97 15.75 7.8 16.9312 7.8 18.375C7.8 19.8188 8.97 21 10.4 21C11.83 21 13 19.8188 13 18.375C13 16.9312 11.83 15.75 10.4 15.75Z" fill="black"/>
</svg>
