<svg width="13" height="22" viewBox="0 0 13 22" fill="none" xmlns="http://www.w3.org/2000/svg">
<path d="M4.7 18.875C4.7 20.0471 3.74936 21 2.6 21C1.45064 21 0.5 20.0471 0.5 18.875C0.5 17.7029 1.45064 16.75 2.6 16.75C3.74936 16.75 4.7 17.7029 4.7 18.875ZM0.5 11C0.5 9.82787 1.45064 8.875 2.6 8.875C3.74936 8.875 4.7 9.82787 4.7 11C4.7 12.1721 3.74936 13.125 2.6 13.125C1.45064 13.125 0.5 12.1721 0.5 11ZM0.5 3.125C0.5 1.95287 1.45064 1 2.6 1C3.74936 1 4.7 1.95287 4.7 3.125C4.7 4.29713 3.74936 5.25 2.6 5.25C1.45064 5.25 0.5 4.29713 0.5 3.125ZM12.5 3.125C12.5 4.29713 11.5494 5.25 10.4 5.25C9.25064 5.25 8.3 4.29713 8.3 3.125C8.3 1.95287 9.25064 1 10.4 1C11.5494 1 12.5 1.95287 12.5 3.125ZM8.3 11C8.3 9.82787 9.25064 8.875 10.4 8.875C11.5494 8.875 12.5 9.82787 12.5 11C12.5 12.1721 11.5494 13.125 10.4 13.125C9.25064 13.125 8.3 12.1721 8.3 11ZM8.3 18.875C8.3 17.7029 9.25064 16.75 10.4 16.75C11.5494 16.75 12.5 17.7029 12.5 18.875C12.5 20.0471 11.5494 21 10.4 21C9.25064 21 8.3 20.0471 8.3 18.875Z" fill="white" stroke="white"/>
</svg>
